<svg width="158" height="179" viewBox="0 0 158 179" fill="none" xmlns="http://www.w3.org/2000/svg">
<path d="M152.963 41.4032L83.2225 1.1235C80.7258 -0.374501 76.7312 -0.374501 74.4009 1.1235L60.586 9.11287L4.49402 41.4032C1.99734 42.7348 0 46.2301 0 49.0597V129.619C0 132.449 1.99734 135.944 4.49402 137.276L74.4009 177.555C76.8976 178.887 80.7258 178.887 83.2225 177.555L152.963 137.276C155.46 135.944 157.457 132.449 157.457 129.619V49.0597C157.457 46.2301 155.46 42.7348 152.963 41.4032ZM141.811 109.646L99.0348 152.422C97.5368 153.92 94.7072 154.752 92.7099 154.086L34.2877 138.441C32.2903 137.941 30.1265 135.778 29.6272 133.78L13.9814 75.358C13.482 73.3606 14.1478 70.5311 15.6458 69.0331L58.4222 26.2567C59.9202 24.7587 62.7498 23.9265 64.9136 24.5923L111.685 37.0756L123.336 40.2381C125.333 40.7374 127.497 42.9012 127.996 44.8985L143.642 103.321C144.141 105.318 143.309 108.148 141.811 109.646Z" fill="#E8BA00"/>
<path d="M102.694 52.2238C102.029 51.0587 100.198 50.0601 98.8663 50.0601H58.5866C57.255 50.0601 55.4241 51.0587 54.7583 52.2238L38.6132 80.1866L34.6185 87.1773C33.9527 88.3424 33.9527 90.3398 34.6185 91.6713L54.7583 126.625C55.4241 127.79 57.255 128.789 58.5866 128.789H98.8663C100.198 128.789 102.029 127.79 102.694 126.625L122.834 91.6713C123.5 90.5062 123.5 88.5089 122.834 87.1773L102.694 52.2238ZM98.3669 99.4942C98.3669 100.16 97.8676 100.992 97.2018 101.492L79.7251 111.645C79.0593 111.978 78.0606 111.978 77.5613 111.645L60.0846 101.492C59.4188 101.159 58.9194 100.326 58.9194 99.4942V79.1879C58.9194 78.5222 59.4188 77.6899 60.0846 77.1906L74.0659 69.0348L77.5613 67.0375C78.2271 66.7046 79.2257 66.7046 79.7251 67.0375L97.2018 77.1906C97.8676 77.5235 98.3669 78.3557 98.3669 79.1879V99.4942Z" fill="#E8BA00"/>
</svg>
